<?xml version="1.0" encoding="UTF-8" standalone="no"?>
<!-- Created with Inkscape (http://www.inkscape.org/) -->

<svg
   xmlns:dc="http://purl.org/dc/elements/1.1/"
   xmlns:cc="http://creativecommons.org/ns#"
   xmlns:rdf="http://www.w3.org/1999/02/22-rdf-syntax-ns#"
   xmlns:svg="http://www.w3.org/2000/svg"
   xmlns="http://www.w3.org/2000/svg"
   xmlns:sodipodi="http://sodipodi.sourceforge.net/DTD/sodipodi-0.dtd"
   xmlns:inkscape="http://www.inkscape.org/namespaces/inkscape"
   width="150mm"
   height="35mm"
   viewBox="0 0 531.49606 124.01574"
   id="svg4208"
   version="1.1"
   inkscape:version="0.91 r13725"
   sodipodi:docname="logo.svg">
  <defs
     id="defs4210" />
  <sodipodi:namedview
     id="base"
     pagecolor="#ffffff"
     bordercolor="#666666"
     borderopacity="1.0"
     inkscape:pageopacity="0.0"
     inkscape:pageshadow="2"
     inkscape:zoom="0.35"
     inkscape:cx="-225"
     inkscape:cy="-394.28571"
     inkscape:document-units="px"
     inkscape:current-layer="layer1"
     showgrid="false"
     inkscape:window-width="1235"
     inkscape:window-height="755"
     inkscape:window-x="101"
     inkscape:window-y="0"
     inkscape:window-maximized="0" />
  <metadata
     id="metadata4213">
    <rdf:RDF>
      <cc:Work
         rdf:about="">
        <dc:format>image/svg+xml</dc:format>
        <dc:type
           rdf:resource="http://purl.org/dc/dcmitype/StillImage" />
        <dc:title></dc:title>
      </cc:Work>
    </rdf:RDF>
  </metadata>
  <g
     inkscape:label="Livello 1"
     inkscape:groupmode="layer"
     id="layer1"
     transform="translate(0,-928.34646)">
    <g
       style="font-style:normal;font-weight:normal;font-size:95.68576813px;line-height:125%;font-family:sans-serif;letter-spacing:0px;word-spacing:0px;fill:#fa2901;fill-opacity:1;stroke:none;stroke-width:1px;stroke-linecap:butt;stroke-linejoin:miter;stroke-opacity:1"
       id="text4756">
      <path
         d="m 111.88607,962.46196 c 0,-7.36781 -4.49723,-15.69247 -22.00773,-15.69247 -2.200773,0 -4.497231,0.19137 -6.698004,0.28706 -2.200773,0.19137 -4.401545,0.38274 -6.698004,0.38274 -3.540373,0 -7.080747,-0.19137 -10.62112,-0.38274 -3.540373,-0.0957 -7.080747,-0.28706 -10.62112,-0.28706 -2.966259,0 -6.889376,1.72234 -6.889376,5.3584 0,6.60232 8.228976,0 7.654862,14.44855 l -1.052544,27.55751 c -0.574114,15.88385 -6.793689,9.85565 -6.793689,15.78815 0,3.349 3.349002,5.0713 6.315261,5.0713 3.349001,0 6.602318,-0.096 9.855634,-0.287 3.253316,-0.096 6.602318,-0.1914 9.855634,-0.1914 2.966259,0 5.836832,0.096 8.707405,0.1914 2.870573,0.1914 5.836832,0.287 9.090148,0.287 19.232843,0 25.643783,-11.7693 25.643783,-21.33788 0,-8.03761 -6.79369,-13.10895 -10.7168,-14.63993 -0.95686,-0.47842 -2.0094,-0.86117 -2.0094,-2.10508 0,-1.24392 0.86117,-1.81803 1.72234,-2.58352 3.44469,-2.77489 5.26272,-7.46349 5.26272,-11.86503 z m -33.107279,-0.0957 c 0,-2.77489 -0.382743,-5.64546 3.15763,-5.64546 5.262717,0 6.698004,5.3584 6.698004,9.66426 0,5.26272 -1.339601,9.28152 -7.080747,9.28152 -2.966259,0 -2.774887,-1.81803 -2.774887,-5.54977 l 0,-7.75055 z m 0,26.31359 c 0.09569,-2.0094 0.765486,-3.54038 3.731745,-3.54038 6.698003,0 8.420347,5.16704 8.420347,11.00387 0,4.97565 -1.913715,8.70745 -7.367804,8.70745 -2.966259,0 -4.784288,-0.2871 -4.784288,-11.38665 l 0,-4.78429 z"
         style="font-style:normal;font-variant:normal;font-weight:900;font-stretch:normal;font-family:'Cooper Std';-inkscape-font-specification:'Cooper Std Heavy';fill:#fa2901;fill-opacity:1"
         id="path4864" />
      <path
         d="m 147.75926,969.5427 c 0,-2.39214 -0.28706,-3.63606 -2.96626,-3.63606 -0.76548,0 -24.8783,0.28706 -24.8783,6.41095 0,6.31526 6.60232,-0.0957 6.60232,14.54424 0,14.35287 -1.53097,28.70577 16.64932,28.70577 4.21018,0 7.27212,-1.4353 9.56858,-2.8706 2.29646,-1.4353 3.82743,-2.8706 4.87997,-2.8706 3.82743,0 -1.05254,5.7412 6.31526,5.7412 5.26272,0 22.1991,-1.8181 22.1991,-8.3247 0,-4.5929 -5.26271,-1.9137 -5.26271,-7.65487 l 0,-19.23283 c 0,-3.06195 0.19137,-6.02821 0.19137,-9.09015 0,-3.349 -1.43529,-5.35841 -4.87998,-5.35841 -3.63606,0 -22.8689,0.95686 -22.8689,6.60232 0,4.0188 4.68861,2.39215 5.45409,7.17644 0.47843,3.06194 0.38275,7.17643 0.38275,10.33406 0,4.59291 0.95685,13.58734 -5.93252,13.58734 -5.16703,0 -5.45409,-5.93248 -5.45409,-9.75991 l 0,-24.30419 z"
         style="font-style:normal;font-variant:normal;font-weight:900;font-stretch:normal;font-family:'Cooper Std';-inkscape-font-specification:'Cooper Std Heavy';fill:#fa2901;fill-opacity:1"
         id="path4866" />
      <path
         d="m 218.17353,979.58971 c 0,-3.44469 0.19137,-3.54037 3.54037,-3.54037 l 6.60232,0 c 3.73174,0 4.40154,-0.38275 4.40154,-5.83684 0,-4.30586 0,-4.59291 -4.11449,-4.59291 l -6.698,0 c -2.48783,0 -3.15763,0 -3.44469,-0.76549 -0.47843,-1.14823 -0.28705,-4.11449 -0.28705,-7.08075 0,-4.40154 -0.19138,-4.0188 -4.01881,-4.0188 -2.87057,0 -2.77488,-0.28706 -4.97566,1.05255 l -21.81635,13.87443 c -1.14823,0.76549 -0.86117,1.81803 -0.86117,3.15763 0,2.20077 -0.19137,3.15763 0.47843,3.82743 0.47842,0.47843 1.72234,0.38275 4.21017,0.38275 2.20077,0 3.25332,-0.19138 3.73174,0.0957 0.47843,0.28706 0.47843,0.95686 0.47843,2.6792 l 0,19.71127 c 0,15.21401 12.24778,17.31911 17.12776,17.31911 9.66426,0 20.57244,-5.5498 20.57244,-11.865 0,-1.7224 -1.3396,-4.40157 -3.25332,-4.40157 -1.72234,0 -3.44469,2.20077 -6.41095,2.20077 -2.58351,0 -5.26271,-1.531 -5.26271,-7.94191 l 0,-14.25718 z"
         style="font-style:normal;font-variant:normal;font-weight:900;font-stretch:normal;font-family:'Cooper Std';-inkscape-font-specification:'Cooper Std Heavy';fill:#fa2901;fill-opacity:1"
         id="path4868" />
      <path
         d="m 263.84254,978.82422 c 0,-13.68306 1.24392,-24.2085 1.24392,-26.40927 0,-2.87057 -0.76549,-4.97566 -4.01881,-4.97566 -1.3396,0 -26.2179,2.0094 -26.2179,10.33406 0,5.45409 5.64546,2.96626 7.08075,10.04701 0.86117,4.30586 0.6698,11.48229 0.6698,15.21404 0,4.6886 0,16.64932 -1.24392,20.5724 -1.14822,3.5404 -5.26271,2.2965 -5.26271,5.6455 0,6.7937 13.396,6.3153 17.70186,6.3153 4.11449,0 15.78816,0.4784 15.78816,-5.9326 0,-4.0188 -4.30586,-2.3921 -5.35841,-5.8368 -0.47843,-1.531 -0.38274,-4.68859 -0.38274,-6.41094 l 0,-18.56304 z"
         style="font-style:normal;font-variant:normal;font-weight:900;font-stretch:normal;font-family:'Cooper Std';-inkscape-font-specification:'Cooper Std Heavy';fill:#fa2901;fill-opacity:1"
         id="path4870" />
      <path
         d="m 316.73434,992.50729 c 3.06194,0 5.93252,-0.86117 5.93252,-7.17643 0,-7.17644 -7.17644,-19.71127 -23.44302,-19.71127 -14.35286,0 -26.8877,10.7168 -26.8877,25.45241 0,12.3435 8.89878,24.7826 26.12222,24.7826 8.61172,0 22.10341,-5.3584 22.10341,-12.7262 0,-1.818 -1.72234,-4.78428 -3.73175,-4.78428 -2.0094,0 -5.54977,4.30588 -12.7262,4.30588 -4.49723,0 -10.71681,-4.01882 -10.71681,-8.80311 0,-1.62666 1.53097,-1.3396 2.58352,-1.3396 l 20.76381,0 z m -18.08461,-9.18584 c -2.48783,0 -5.74115,0.76549 -5.74115,-2.6792 0,-3.06194 2.58352,-6.31526 5.74115,-6.31526 3.54037,0 5.64546,2.6792 5.64546,6.12389 0,3.44469 -3.06195,2.87057 -5.64546,2.87057 z"
         style="font-style:normal;font-variant:normal;font-weight:900;font-stretch:normal;font-family:'Cooper Std';-inkscape-font-specification:'Cooper Std Heavy';fill:#fa2901;fill-opacity:1"
         id="path4872" />
      <path
         d="m 331.43558,991.26337 c 0,2.6792 -0.28706,8.13329 -1.05255,10.52543 -1.05254,3.349 -5.45408,3.349 -5.45408,7.3678 0,6.6023 13.01326,6.411 17.41481,6.411 10.52543,0 18.94578,-0.4785 18.94578,-6.5067 0,-5.7411 -7.27212,-3.1576 -7.84624,-7.3678 -0.47842,-3.63604 -0.76548,-7.65484 -0.76548,-10.52541 0,-1.72235 -0.47843,-8.13329 2.20077,-8.13329 2.48783,0 4.21017,5.45409 10.42975,5.45409 6.31526,0 11.76935,-5.07135 11.76935,-11.4823 0,-6.31526 -4.21017,-11.09955 -10.62112,-11.09955 -8.22898,0 -9.66426,7.55918 -11.96072,7.55918 -1.62666,0 -1.53097,-2.20077 -1.62666,-3.349 -0.38274,-3.25332 -0.47843,-4.21018 -4.11449,-4.21018 -0.86117,0 -23.25164,2.10509 -23.25164,9.66427 0,5.83683 5.93252,0.57411 5.93252,9.95132 l 0,5.74114 z"
         style="font-style:normal;font-variant:normal;font-weight:900;font-stretch:normal;font-family:'Cooper Std';-inkscape-font-specification:'Cooper Std Heavy';fill:#fa2901;fill-opacity:1"
         id="path4874" />
      <path
         d="m 396.92051,1004.2766 c 0,-6.41091 -5.16703,-11.57794 -11.57798,-11.57794 -6.41094,0 -11.57798,5.16703 -11.57798,11.57794 0,6.411 5.16704,11.578 11.57798,11.578 6.41095,0 11.57798,-5.167 11.57798,-11.578 z"
         style="font-style:normal;font-variant:normal;font-weight:900;font-stretch:normal;font-family:'Cooper Std';-inkscape-font-specification:'Cooper Std Heavy';fill:#fa2901;fill-opacity:1"
         id="path4876" />
      <path
         d="m 430.83662,970.97799 c 0,-2.77489 0.19138,-5.07135 -3.25331,-5.07135 -0.0957,0 -26.02653,1.91372 -26.02653,11.00387 0,5.16703 6.21957,0.6698 6.21957,9.85563 l 0,29.94966 c 0,3.2533 0.47843,2.7749 0.47843,4.9756 0,1.3396 -0.86117,2.7749 -2.39214,2.7749 -0.86117,0 -1.81803,-0.287 -2.77489,-0.287 -1.62666,0 -3.06194,1.4353 -3.06194,3.0619 0,5.0714 7.27212,6.698 11.29092,6.698 5.26272,0 12.91758,-1.9137 16.45795,-6.1239 3.06194,-3.9231 3.06194,-10.9081 3.06194,-15.6924 l 0,-41.14491 z m -1.14822,-17.5105 c 0,-4.78428 -5.45409,-6.0282 -9.28152,-6.0282 -4.87998,0 -17.5105,2.58352 -17.5105,8.89878 0,4.6886 4.30586,6.50663 8.32466,6.50663 5.45409,0 18.46736,-1.91372 18.46736,-9.37721 z"
         style="font-style:normal;font-variant:normal;font-weight:900;font-stretch:normal;font-family:'Cooper Std';-inkscape-font-specification:'Cooper Std Heavy';fill:#fa2901;fill-opacity:1"
         id="path4878" />
      <path
         d="m 459.51096,965.61959 c -9.85563,0 -17.70187,6.0282 -17.70187,15.59678 0,15.78815 18.75441,16.45795 18.75441,22.10343 0,2.1051 -1.81803,3.0619 -3.73174,3.0619 -5.3584,0 -9.18584,-9.47287 -13.39601,-9.47287 -2.77489,0 -3.63606,2.0094 -3.63606,4.49727 0,3.636 2.39215,9.0901 4.78429,11.7693 1.3396,1.531 2.29646,1.818 4.21017,1.818 0.6698,0 1.24392,-0.096 1.81803,-0.1913 0.6698,-0.096 1.24392,-0.1914 1.91372,-0.1914 0.57411,0 2.6792,0.2871 5.07134,0.5741 2.39215,0.3828 5.16704,0.6698 7.08075,0.6698 9.95132,0 18.65873,-6.2196 18.65873,-15.214 0,-14.83132 -21.05087,-15.97955 -21.05087,-22.10343 0,-1.81803 1.72234,-3.25332 3.44468,-3.25332 4.21018,0 7.27212,7.55918 12.72621,7.55918 2.48783,0 4.6886,-1.91372 4.6886,-4.49724 0,-3.92311 -4.40154,-12.7262 -8.80309,-12.7262 -0.86117,0 -1.72234,0.28705 -2.58351,0.57411 -0.86117,0.38274 -1.62666,0.6698 -2.58352,0.6698 -0.6698,0 -2.20077,-0.28706 -3.92311,-0.6698 -1.81803,-0.28706 -3.82743,-0.57411 -5.74115,-0.57411 z"
         style="font-style:normal;font-variant:normal;font-weight:900;font-stretch:normal;font-family:'Cooper Std';-inkscape-font-specification:'Cooper Std Heavy';fill:#fa2901;fill-opacity:1"
         id="path4880" />
    </g>
  </g>
</svg>
